<?xml version="1.0" encoding="utf-8"?>
<!-- Generator: Adobe Illustrator 24.2.0, SVG Export Plug-In . SVG Version: 6.00 Build 0)  -->
<svg version="1.1" id="Capa_1" xmlns="http://www.w3.org/2000/svg" xmlns:xlink="http://www.w3.org/1999/xlink" x="0px" y="0px"
	 viewBox="0 0 1920 1080" style="enable-background:new 0 0 1920 1080;" xml:space="preserve">
<style type="text/css">
	.st0{fill:#FFFFFF;}
</style>
<g>
	<path class="st0" d="M999.7,740.5h-27.2c-4.9,0-8.4,3.6-8.4,8.7v87.6c0,5.7,4.2,8.7,8.3,8.7h27.3c31.2,0,35.9-16.5,35.9-26.3v-52.3
		C1035.5,756.9,1030.9,740.5,999.7,740.5 M1012.7,817.6c0,3.1-1.6,6.3-13,6.3h-12.9V762h12.9c11.5,0,13,3.2,13,6.3V817.6z"/>
	<path class="st0" d="M1080,750.1c-29.2,0-35.3,14.3-35.3,26.2v42.3c0,12,6.1,26.2,35.1,26.2c11.3,0,20-2.1,25.8-6.1
		c6.3-4.4,9.5-11.2,9.5-20.1v-1.9c0-4.1-2.9-6.9-7.1-6.9h-6c-4.2,0-7.1,2.8-7.1,6.9v1.2c0,3.9-1.5,5.3-2.5,6.1
		c-1.6,1-5,2.3-12.3,2.3c-7.3,0-10.7-1.2-12.3-2.3c-1.1-0.7-2.5-2.1-2.5-6.1v-14h43.1c4.1,0,6.9-2.8,6.9-6.9v-20.6
		C1115.1,764.4,1109,750.1,1080,750.1 M1094.9,785.9h-29.8V777c0-3.6,1.5-8.3,14.9-8.3c13.3,0,14.9,4.8,14.9,8.3V785.9z"/>
	<path class="st0" d="M1179,828c-1.4-1.4-3.3-2.1-5.6-2.1H1145v-68.3c0-4.5-3.2-7.8-7.7-7.8h-5.3c-4.5,0-7.7,3.3-7.7,7.8v79.9
		c0,5.1,3.7,7.8,7.5,7.8h41.7c4.5,0,7.7-3.3,7.7-7.8v-3.9C1181.1,830.7,1179.9,828.9,1179,828"/>
	<path class="st0" d="M1421.2,740.5H1365c-4.9,0-8.5,3.6-8.5,8.7v4.2c0,5,3.6,8.7,8.5,8.7h16.7v74.7c0,5,3.6,8.7,8.5,8.7h5.8
		c4.9,0,8.5-3.6,8.5-8.7V762h16.7c5,0,8.7-3.6,8.7-8.7v-4.2C1429.8,744.1,1426.2,740.5,1421.2,740.5"/>
	<path class="st0" d="M1467.4,749.9c-29.2,0-35.3,14.3-35.3,26.2v42.3c0,12,6.1,26.2,35.1,26.2c11.3,0,20-2.1,25.8-6.1
		c6.3-4.4,9.5-11.2,9.5-20.1v-3.5c0-4.2-2.8-6.9-7.1-6.9h-6c-4.2,0-7.1,2.8-7.1,6.9v2.9c0,3.9-1.5,5.3-2.5,6.1
		c-1.6,1-5,2.3-12.3,2.3c-7.3,0-10.7-1.2-12.3-2.3c-1.1-0.7-2.5-2.1-2.5-6.1v-14h43.1c4.2,0,6.9-2.8,6.9-6.9v-20.6
		C1502.5,764.2,1496.4,749.9,1467.4,749.9 M1482.2,785.6h-29.8v-8.8c0-3.6,1.5-8.3,14.9-8.3c13.3,0,14.9,4.8,14.9,8.3V785.6z"/>
	<path class="st0" d="M1583.2,833.8l-14.2-29.7l0.9-0.5c8.6-4.4,13.2-11.9,13.2-21.8v-15.1c0-9.8-4.7-26.3-35.9-26.3h-26.7
		c-4.9,0-8.4,3.6-8.4,8.7v87.6c0,5,3.6,8.7,8.5,8.7h5.7c5,0,8.5-3.6,8.5-8.7v-28.6h11l15.1,31.8c2.6,4.8,6.2,5.5,8.1,5.5h6.3
		c2.7,0,5.1-1,6.7-2.8C1584.1,840.1,1584.6,836.7,1583.2,833.8L1583.2,833.8z M1560.2,780.3c0,3.2-1.6,6.4-13,6.4h-12.3V762h12.3
		c11.5,0,13,3.2,13,6.3V780.3z"/>
	<path class="st0" d="M1629.7,749.9c-29.9,0-36.1,14.3-36.1,26.2v42.3c0,12,6.3,26.2,36.1,26.2c30,0,36.3-14.3,36.3-26.2v-42.3
		C1666,759,1653.5,749.9,1629.7,749.9 M1645.3,817.6c0,3.6-1.6,8.3-15.5,8.3c-13.8,0-15.4-4.8-15.4-8.3V777c0-3.6,1.6-8.3,15.4-8.3
		c13.9,0,15.5,4.8,15.5,8.3V817.6z"/>
	<path class="st0" d="M1336.9,790.2c-4.7-1.7-9.6-3.4-14.3-5c-3-1-6.1-2.1-9.1-3.1c-4.7-1.7-6.9-5-5.7-8.7c1-3.2,3.6-7,6.6-8.2
		c4.3-1.7,8.2-1.7,11.3,0.2c3.1,1.9,5,5.5,5.4,10.2c0.3,3,1.4,4.1,4.1,4.2c1.5,0,2.9,0,4.4,0l2.2,0c0.8,0,1.6,0.1,2.4,0.1
		c1.8,0.1,3.5,0.2,4.9-0.2c1.6-0.5,3.6-2.3,3.9-3.5c2.5-11.9-3.2-22.3-14.6-26.5c-8.3-3-17.3-3.9-27.7-2.6
		c-17.9,2.3-24.8,10.1-24.8,27.9c0,13.5,3.9,19.2,16.9,24.1c1.9,0.7,3.7,1.4,5.6,2.1c6.1,2.3,12.5,4.7,18.4,7.7
		c2.7,1.4,5.3,6.2,5,9.4c-0.3,3-3.5,7-6.6,8.2c-5.3,2.1-9.9,2.1-13.3-0.1c-3.5-2.3-5.6-6.6-5.9-12.6c-0.1-2.5-0.6-4-1.6-4.9
		c-0.9-0.8-2.3-1.1-4.2-1c-1.8,0.1-3.6,0.1-5.3,0c-0.9,0-1.7,0-2.6,0c-1.4,0-2.8,0-4.1,0.2c-1.5,0.2-3.7,1.6-4,2.5
		c-2.2,6.7-1.7,14,1.5,20.1c3,5.6,7.9,9.7,14,11.4c8,2.3,17.1,3.1,27.3,2.6c9.9-0.5,17.2-3.3,21.8-8.5c4.5-4.9,6.5-12.1,6-21.4
		C1353.7,801,1349.1,794.6,1336.9,790.2"/>
	<path class="st0" d="M1227.6,823.8v-15.8h26.2c4.9,0,8.4-3.6,8.4-8.7v-4c0-5-3.5-8.7-8.4-8.7h-26.3V762h39.8c4.9,0,8.4-3.6,8.4-8.7
		v-4.2c0-5-3.5-8.7-8.4-8.7h-54.1c-4.9,0-8.4,3.6-8.4,8.7l0.1,87.6c0,5,3.5,8.7,8.4,8.7h26.7h27.3c4.9,0,8.4-3.6,8.4-8.7v-4.2
		c0-5-3.5-8.7-8.4-8.7h-27.3H1227.6z"/>
	<path class="st0" d="M1248.6,631.4c-8.4,6.7-16.9,12.1-25.6,17.2c-16.1,9.5-33,16.6-51.7,18.8c-26.2,3-52.1,2.7-76.5-9.1
		c-24.3-11.7-39.1-30.9-44.2-57.5c-1.2-6.5-1.8-13-1.7-19.6c0.2-11.5-0.5-23,0.4-34.5c2.2-28.7,15.7-50.3,40.6-64.8
		c16.4-9.5,34.1-14.4,53-14.9c33-0.9,66.1-0.2,99.1-0.4c3.7,0,3.7,0,3.7-3.9c0-13.4,0.1-26.7,0-40.1c-0.1-7.3-1.3-14.4-5-20.9
		c-4.8-8.4-12.4-12.8-21.5-14.5c-18.7-3.5-37.3-3.7-55.8,1.4c-13.2,3.7-20.8,13.8-21.4,27.5c-0.2,4-0.2,8.1-0.5,12.1
		c-0.7,8.9-5.7,13.9-14.7,14c-18,0.2-36,0.1-54,0c-1.7,0-3.5-0.3-5.2-0.7c-5.3-1.2-7.9-4.3-8.8-10.1c-1-6.6-0.3-13.1,0-19.7
		c0.2-5.1,0.7-10.2,1.6-15.2c6.2-32.5,25.3-54.2,55.6-66.3c15.3-6.1,31.3-9,47.5-10.6c13.6-1.4,27.3-2,40.9-1.6
		c23.9,0.7,47.7,2.7,70.4,11c32.1,11.7,51.3,34.4,57.6,68c1.1,5.8,1.5,11.7,1.5,17.6c0,77,0,153.9,0,230.9c0,1.7,0,3.4-0.2,5
		c-1.3,8.3-6.5,12.9-14.9,13c-18,0.1-36,0.1-54,0c-8.4-0.1-11.5-2.8-13.6-11c-1.5-5.7-1.6-11.6-2.3-17.5
		C1248.8,633.9,1248.8,633,1248.6,631.4 M1246,549.4c0-5.6-0.1-11.2,0.1-16.8c0.1-2.5-0.7-3.1-3.1-3.1c-19.4,0.1-38.7,0-58.1,0.1
		c-8,0-15.9-0.3-23.9,0.5c-12.8,1.2-20.1,7.3-23.1,19.8c-1.8,7.7-1.1,15.4-1.1,23.2c0,13,5.6,20.1,18.2,23.2c13.1,3.2,26.2,2,39.1-1
		c18.9-4.5,34.9-14.9,50.7-25.6c1.2-0.8,1.2-1.8,1.2-3C1246,560.8,1246,555.2,1246,549.4z"/>
	<path class="st0" d="M1350.6,484.5c0-35.7,0-71.4,0-107c0-13.9,2.5-27.3,8.4-39.9c8.3-17.9,22.3-30.4,39.7-39
		c16.6-8.2,34.2-12.7,52.5-14.9c17.4-2,34.9-2.3,52.4-1.6c25.4,1,50.1,5,73.1,16.5c25.8,12.8,41.8,33.1,46.8,61.7
		c1.8,10.1,1.3,20.4,1.3,30.6c0,4.6,0.5,9.2-0.4,13.8c-1.4,6.4-5.1,9.9-11.6,10c-17.2,0.1-34.4,0.2-51.6,0
		c-8.2-0.1-12.7-5.2-13-13.7c-0.2-5.9,0.3-11.8-0.5-17.6c-2-15.6-10.9-25.6-25.3-31.1c-12.3-4.7-25.2-5.4-38.3-5
		c-10.2,0.3-20.3,1.5-29.9,5.5c-15.6,6.5-24.2,19-24.2,35.9c-0.1,63.9-0.1,127.8,0,191.7c0,18.1,9.7,31.7,27.4,37.1
		c21.4,6.5,43,6.5,64.3-0.4c17.3-5.6,26.2-18.8,26.3-37c0.1-12.6,0-25.2,0.1-37.7c0-2.1-0.5-2.6-2.6-2.6c-17.8,0.1-35.6,0.1-53.4,0
		c-1.5,0-3,0-4.4-0.1c-7.9-0.5-11.4-3.7-11.7-11.4c-0.5-14.4-0.6-28.9,0.1-43.3c0.3-5.9,3.5-9.2,9.3-10c2.4-0.3,4.9-0.5,7.3-0.5
		c38.3,0,76.5,0,114.8,0c2.6,0,5.1,0.2,7.6,0.5c6,0.9,9,4.4,9.6,10.8c0,0.5,0,1,0,1.5c0,36.4,0.6,72.8-0.2,109.1
		c-0.8,33.7-17.1,58.4-47.2,73.7c-15.8,8-32.6,12.5-50.1,14.8c-21.1,2.8-42.2,3-63.3,1.6c-25.3-1.6-49.7-6.6-71.9-19.7
		c-23.5-13.8-37.2-34.2-40.6-61.4c-0.6-5-1-10-1-15V484.5z"/>
	<path class="st0" d="M1889.9,489.2c0,29.4-0.2,58.8,0.1,88.2c0.4,34.1-15.9,57-46.4,70.6c-14.3,6.4-29.5,9.8-45.1,11.4
		c-17.6,1.8-35.1,1.9-52.7,0.4c-20.2-1.7-39.7-6-57.6-15.9c-20.2-11.2-33.2-27.7-37.1-50.9c-0.8-5-0.9-10-0.9-15
		c0-58.9,0.3-117.8-0.1-176.6c-0.3-37.4,19.5-59.8,47.8-71.8c15.7-6.6,32.1-9.9,49-11.3c13.3-1.1,26.5-1.3,39.8-0.5
		c22.3,1.3,44,5.2,63.9,15.8c21.4,11.3,34.7,28.6,38.5,52.7c0.6,3.7,0.8,7.4,0.8,11.1C1889.9,428.1,1889.9,458.7,1889.9,489.2
		 M1717.5,488.8L1717.5,488.8c-0.1,26.7-0.1,53.5,0,80.2c0,15.4,6.9,25.8,21.3,31.2c18.7,7,37.9,6.9,57,2
		c15.6-4.1,28-13.7,27.6-36.5c-0.5-34-0.1-68-0.1-102c0-18.8,0.2-37.6-0.1-56.3c-0.2-11.2-5-20.1-14.8-26.1
		c-3.6-2.2-7.4-3.9-11.5-5.1c-14.5-4.2-29.3-4.4-44.1-2.2c-7.5,1.1-14.7,3.4-21.1,7.5c-9.1,5.9-14,14.4-14.1,25.1
		C1717.4,434,1717.5,461.4,1717.5,488.8z"/>
	<path class="st0" d="M400.2,592c-15.2,0-30.5,0.1-45.7-0.1c-2.1,0-2.8,0.6-3.4,2.5c-5.7,20-11.4,40-17.2,60c-0.4,1.4-1,2.7-1.5,4.1
		c-2.5,7-7.5,10.1-14.9,10.1c-13.8-0.1-27.5,0-41.3,0c-0.2,0-0.4,0-0.6,0c-9.6-0.3-12.5-4.4-9.8-13.5c32.4-109,64.8-218,97.2-327
		c0.5-1.6,1.1-3.1,1.7-4.7c2.5-6.3,7.1-9.3,13.9-9.2c15.4,0.1,30.9,0,46.3,0c8.6,0,14,4,16.5,12.3c4.4,14.6,8.7,29.2,13,43.8
		c26.3,88.9,52.5,177.8,78.8,266.7c1.9,6.6,3.9,13.1,5.7,19.7c2,7.2-0.3,10.7-7.6,11.6c-1.6,0.2-3.3,0.2-5,0.2
		c-14.1,0-28.1,0-42.2,0c-9.2,0-12.8-2.2-16.1-10.8c-3.4-8.9-5.5-18.3-8.2-27.5c-3.5-11.9-6.9-23.9-10.2-35.8
		c-0.5-1.9-1.2-2.6-3.4-2.6C430.9,592.1,415.5,592,400.2,592 M366.4,536.1h2.9c20.3,0,40.5,0,60.8,0.1c2.7,0,2.7-0.7,2-2.9
		c-5.8-19.4-11.9-38.7-17.2-58.2c-6.7-24.5-9-49.9-12.5-75c-0.6-4.6-1.2-9.2-1.8-13.9C394.9,437.3,384.2,487.2,366.4,536.1z"/>
	<path class="st0" d="M901.8,500.8c0,65.8,0,131.5,0,197.3c0,2.2,0,4.3-0.4,6.5c-1.3,6.9-5,10.6-12,10.7c-16.9,0.2-33.8,0.2-50.8,0
		c-8-0.1-12.1-4.2-13.2-12.3c-0.2-1.9-0.3-3.9-0.3-5.9c0-131.9,0-263.9,0.1-395.8c0-2.9-0.6-3.7-3.6-3.7
		c-25.2,0.2-50.4,0.1-75.6,0.1c-2,0-3.9-0.1-5.9-0.6c-3.9-1-6.4-3.4-7.2-7.3c-0.4-1.8-0.5-3.7-0.5-5.6c0-12.4,0-24.8,0-37.2
		c0-8.9,3.5-12.5,12.6-12.5c78.8,0,157.6,0,236.4,0c1.8,0,3.5,0.1,5.3,0.5c4.7,1.1,7.6,4.2,7.7,9.1c0.1,14.3,0.1,28.7,0,43.1
		c-0.1,5.6-3.2,8.8-8.7,9.9c-1.7,0.4-3.5,0.4-5.3,0.4c-25.2,0-50.4,0.1-75.5-0.1c-2.6,0-3.2,0.6-3.2,3.2
		C901.8,367.5,901.8,434.1,901.8,500.8"/>
	<path class="st0" d="M255.4,564.3c-0.3,6.4,0.3,14.7-0.4,23.1c-2,22.5-12.6,39.6-31.7,51.6c-13.5,8.5-28.5,13.2-44.2,15.7
		c-19.4,3.1-39,3.2-58.5,1.7c-19.1-1.5-37.5-5.7-54.4-15.2c-19.7-11-31.9-27.4-35.4-49.9c-0.4-2.9-0.7-5.9-0.7-8.8
		c-0.1-10.6-0.1-21.2,0-31.8c0-8.3,3.7-12.1,12.1-12.1c13.4,0,26.7,0,40.1,0c6.5,0,9.1,2.2,9.8,8.5c1,8.2,0.3,16.5,0.4,24.7
		c0.1,4.5,0.5,8.8,2.1,13c3.8,9.6,11.6,14.5,20.9,17.5c11.7,3.7,23.7,4.2,35.8,3.3c7.8-0.6,15.3-1.9,22.5-5
		c12.4-5.3,18.4-14.7,18.5-28c0-4.5-0.2-9.1,0-13.6c0.5-10.8-4.6-18.6-13.3-24.3c-9.4-6.2-20-9.8-30.4-13.7
		c-23.1-8.6-46.3-16.8-69.1-26c-24.1-9.7-38.4-28-42.9-53.7c-0.3-1.4-0.2-2.9-0.2-4.4c0.1-13.7-0.9-27.5,0.7-41.2
		c2.9-25.2,16.3-42.9,39-53.9c13.8-6.7,28.6-10,43.8-11.3c13.6-1.2,27.3-1.4,41-0.5c21.2,1.4,41.6,5.7,59.8,17.1
		c19.3,12.1,29.5,29.8,31.3,52.4c0.8,9.7,0.9,19.4,0,29.1c-0.5,5.5-4.2,8.6-9.7,8.6c-14.2,0.1-28.3,0.2-42.5,0
		c-5.8,0-9.5-3.8-9.7-9.6c-0.2-3.8-0.2-7.7,0-11.5c0.8-20.3-10.9-29.6-24.9-32.8c-15.5-3.5-31-3.7-46.2,1.4
		c-13.5,4.6-20.3,14.5-20.5,28.7c0,5-0.4,10,0.5,15c0.9,5.1,3.5,8.9,7.5,12.2c7.2,5.9,15.9,8.3,24.4,11.3
		c24.2,8.7,48.4,17.2,72.6,26c11.3,4.1,21.4,10.4,30.6,18.2c14.4,12.3,20.9,28,21.3,46.6C255.5,549.1,255.4,555.7,255.4,564.3"/>
	<path class="st0" d="M610.7,458.8v3.4c0,55.9,0,111.9,0,167.8c0,2-0.1,3.9-0.4,5.9c-0.9,4.8-3,6.9-8,7c-13,0.1-26,0.1-38.9,0
		c-5.2-0.1-7.4-2.2-8.2-7.4c-0.2-1.5-0.4-3.1-0.4-4.7c0-91,0-182.1,0-273.1c0-10.3,2.4-12.7,12.7-12.7c10.6,0,21.2,0.1,31.9,0
		c5.1,0,8.6,2,11.2,6.5c28.6,49.3,57.4,98.5,86,147.7c4.5,7.7,8.3,15.8,12,24c1,2.2,2,4.5,3.2,7.1c0.8-1.4,0.5-2.5,0.5-3.5
		c0-56.1,0-112.3,0-168.4c0-1.9,0-3.7,0.3-5.6c1-5.3,3.2-7.5,8.5-7.6c12.8-0.2,25.6-0.2,38.4,0c5.3,0.1,7.5,2.4,8.3,7.7
		c0.2,1.4,0.3,2.9,0.3,4.4c0,90.7,0,181.5,0,272.2c0,2.2-0.2,4.5-0.5,6.7c-0.6,4.1-2.8,6.3-7,6.7c-7.9,0.8-15.9,0.3-23.9,0.4
		c-5.4,0.1-10.8-0.2-16.2-0.2c-3.8,0-6.1-2.1-7.9-5.2c-5.2-9-10.5-18-15.7-27c-23.4-40.1-46.7-80.1-70.1-120.2
		C621,480.4,615.7,469.8,610.7,458.8"/>
	<path class="st0" d="M1022.8,537.5c0,31.8,0,63.7,0,95.5c0,1.4,0,2.8-0.2,4.1c-0.8,5.3-3.9,8.5-9.3,8.5c-15,0.2-30.1,0.2-45.1,0
		c-6.4-0.1-9.8-4-10.2-10.3c-0.1-0.8,0-1.6,0-2.4V442.2c0-0.8,0-1.6,0-2.4c0.3-6.1,3.7-9.7,9.8-10c5.8-0.3,11.6-0.2,17.4-0.2
		c8.6,0,17.1,0,25.7,0c8.7,0.1,11.9,3.3,11.9,12C1022.8,473.6,1022.8,505.6,1022.8,537.5"/>
	<path class="st0" d="M990.9,342.5c6.8,0,13.6,0,20.4,0c8.1,0.1,11.6,3.5,11.6,11.8c0,12.1,0,24.2,0,36.2c0,7.1-3.2,10.8-10.3,10.9
		c-14.5,0.2-29.1,0.3-43.6,0c-7.7-0.2-10.9-4-10.9-11.6c0-11.7,0-23.4,0-35.1c0-8.4,3.6-12.1,12-12.2
		C976.9,342.4,983.9,342.5,990.9,342.5"/>
</g>
</svg>
